<svg id="Calque_1" data-name="Calque 1" xmlns="http://www.w3.org/2000/svg" viewBox="0 0 210.97 121.07"><defs><style>.cls-1,.cls-4{font-size:48px;}.cls-1{font-family:ONE DAY;}.cls-2{fill:#be1622;}.cls-3{white-space:pre;}.cls-4{font-family:Helvetica;}.cls-5{fill-rule:evenodd;}</style></defs><title>SoGeekLogo</title><text class="cls-1" transform="translate(18.3 104.31)"><tspan class="cls-2">SO</tspan><tspan class="cls-3" x="54.24" y="0"> GEEK</tspan></text><text class="cls-4" transform="translate(1.06 97.99)">{</text><text class="cls-4" transform="matrix(-1, 0, 0, 1, 209.92, 97.99)">{</text><g id="Forme_1" data-name="Forme 1"><path class="cls-5" d="M348.22,122.28c-16.36.78-30.76,8.13-39.44,8.33-8.84.2-18-6.65-39.44-8.33a177.3,177.3,0,0,0-48.21,3.07L222,135.42a8.25,8.25,0,0,1,5.7,6.14c1.76,7.11,1.17,19.75,7.45,27.17,7.34,8.67,14.77,10.53,22.35,11,7.4,0.42,24.08-.55,33.31-11a49.35,49.35,0,0,0,8.33-14.46c2.29-5.87,3.75-12.21,6.14-14,0.87-.66,2.1-0.46,3.51-0.44,1.93,0,3.59,0,4.82,1.31,3,3.17,4.28,10.26,7,16.65a43.36,43.36,0,0,0,7.89,11.83c8.2,8.91,26.67,10.48,33.31,10.08,7.3-.44,15.51-3,20.6-9.64a32.11,32.11,0,0,0,5.26-11.39c1.56-6,2-12.22,3.07-16.65,1.43-5.88,5.26-6.14,5.26-6.14l1.31-10.52A227.2,227.2,0,0,0,348.22,122.28ZM225.08,130.6c-0.18-.7,1.84-1.53,4.38-1.75s4.6,0.15,4.82.88-2.06,1.53-4.38,1.75C227.37,131.72,225.3,131.44,225.08,130.6Zm59.6,37.69c-8.17,7.42-20.6,7.89-20.6,7.89h-6.14a33.66,33.66,0,0,1-8.33-2.19,23.76,23.76,0,0,1-8.76-6.57c-6.27-7.22-7.7-19.86-7-25.86a15.38,15.38,0,0,1,10.08-12.71c8.31-3.1,33-2.64,42.07,1.31,5.78,2.54,8.74,8.82,8.76,11.83C294.82,148.83,291.8,161.82,284.68,168.29Zm92.91-.88a23.76,23.76,0,0,1-8.76,6.57,33.66,33.66,0,0,1-8.33,2.19h-6.14s-12.43-.47-20.6-7.89c-7.13-6.48-10.14-19.46-10.08-26.29,0-3,3-9.29,8.76-11.83,9-4,33.76-4.42,42.07-1.31a15.38,15.38,0,0,1,10.08,12.71C385.28,147.56,383.85,160.19,377.58,167.41Zm11.18-35.92c-2.54-.17-4.53-0.79-4.62-1.65s2.07-1.22,4.61-1,4.52,0.89,4.62,1.65S391.09,131.66,388.76,131.5Z" transform="translate(-203.73 -121.8)"/></g></svg>